<svg id="圖層_1" data-name="圖層 1" xmlns="http://www.w3.org/2000/svg" xmlns:xlink="http://www.w3.org/1999/xlink" viewBox="0 0 237 238"><defs><style>.cls-1{fill:#dab598;}.cls-2{clip-path:url(#clip-path);}.cls-3{clip-path:url(#clip-path-2);}.cls-4{clip-path:url(#clip-path-3);}</style><clipPath id="clip-path"><path class="cls-1" d="M49.07,188.15a98,98,0,1,0-28.73-69.33,98.25,98.25,0,0,0,28.73,69.33M38.33,38A114,114,0,0,1,199.22,199.63,114,114,0,0,1,38.33,38"/></clipPath><clipPath id="clip-path-2"><path class="cls-1" d="M118.78,82.41l-47.71,93.5h95.42Zm-5.57-17.07a6.25,6.25,0,0,1,5.57-3.5,6.07,6.07,0,0,1,3,.77,6.4,6.4,0,0,1,2.61,2.73l58.2,114.05a6.71,6.71,0,0,1-2.61,8.88,6,6,0,0,1-3,.77H60.57a6.45,6.45,0,0,1-6.31-6.58,6.77,6.77,0,0,1,.83-3.27L113.21,65.34"/></clipPath><clipPath id="clip-path-3"><path class="cls-1" d="M143.15,48.58H177a6.45,6.45,0,0,1,6.32,6.57A6.75,6.75,0,0,1,182.12,59L166.65,85.75l-13.37,23.18L141.1,130l-16.86,29.22a6.56,6.56,0,0,1-1.12,1.48l-.05.06,0,0-.06.06-.05,0-.08.07,0,0-.11.1h0l-.09.08,0,0-.24.18h0a3.73,3.73,0,0,1-.39.25l0,0,0,0-.21.11,0,0a6.08,6.08,0,0,1-2.75.69h-.12a6.12,6.12,0,0,1-2.74-.69l0,0-.21-.11,0,0,0,0a4.2,4.2,0,0,1-.38-.25h0l-.24-.18,0,0-.1-.08h0l-.1-.1,0,0-.08-.07-.05,0-.06-.06,0,0-.06-.06a6.79,6.79,0,0,1-1.12-1.48L96.47,130l-12.19-21.1L70.9,85.75,55.45,59a6.72,6.72,0,0,1-1.18-3.83,6.45,6.45,0,0,1,6.31-6.57H94.41a6.58,6.58,0,0,1,0,13.14H71.71L81.7,79l13.38,23.17,12.18,21.11,11.52,20,11.51-20,12.19-21.11L155.86,79l10-17.3h-22.7a6.58,6.58,0,0,1,0-13.14Z"/></clipPath></defs><title>工作區域 1</title><path class="cls-1" d="M49.07,188.15a98,98,0,1,0-28.73-69.33,98.25,98.25,0,0,0,28.73,69.33M38.33,38A114,114,0,0,1,199.22,199.63,114,114,0,0,1,38.33,38"/><g class="cls-2"><polygon class="cls-1" points="-90.46 181.67 181.48 328.08 328.01 55.97 56.07 -90.46 -90.46 181.67"/></g><path class="cls-1" d="M118.78,82.41l-47.71,93.5h95.42Zm-5.57-17.07a6.25,6.25,0,0,1,5.57-3.5,6.07,6.07,0,0,1,3,.77,6.4,6.4,0,0,1,2.61,2.73l58.2,114.05a6.71,6.71,0,0,1-2.61,8.88,6,6,0,0,1-3,.77H60.57a6.45,6.45,0,0,1-6.31-6.58,6.77,6.77,0,0,1,.83-3.27L113.21,65.34"/><g class="cls-3"><polygon class="cls-1" points="1.17 160.45 154.99 243.28 237.28 90.43 83.47 7.62 1.17 160.45"/></g><path class="cls-1" d="M143.15,48.58H177a6.45,6.45,0,0,1,6.32,6.57A6.75,6.75,0,0,1,182.12,59L166.65,85.75l-13.37,23.18L141.1,130l-16.86,29.22a6.56,6.56,0,0,1-1.12,1.48l-.05.06,0,0-.06.06-.05,0-.08.07,0,0-.11.1h0l-.09.08,0,0-.24.18h0a3.73,3.73,0,0,1-.39.25l0,0,0,0-.21.11,0,0a6.08,6.08,0,0,1-2.75.69h-.12a6.12,6.12,0,0,1-2.74-.69l0,0-.21-.11,0,0,0,0a4.2,4.2,0,0,1-.38-.25h0l-.24-.18,0,0-.1-.08h0l-.1-.1,0,0-.08-.07-.05,0-.06-.06,0,0-.06-.06a6.79,6.79,0,0,1-1.12-1.48L96.47,130l-12.19-21.1L70.9,85.75,55.45,59a6.72,6.72,0,0,1-1.18-3.83,6.45,6.45,0,0,1,6.31-6.57H94.41a6.58,6.58,0,0,1,0,13.14H71.71L81.7,79l13.38,23.17,12.18,21.11,11.52,20,11.51-20,12.19-21.11L155.86,79l10-17.3h-22.7a6.58,6.58,0,0,1,0-13.14Z"/><g class="cls-4"><rect class="cls-1" x="38.03" y="21.74" width="161.49" height="167.62" transform="translate(-30.47 160.1) rotate(-61.7)"/></g></svg>